<svg width="71" height="71" viewBox="0 0 71 71" xmlns="http://www.w3.org/2000/svg">
  <rect width="71" height="71" rx="14" fill="#000000"/>
  <path d="M56.3067 19.4282C53.8957 15.2972 50.6254 12.0267 46.4948 9.616C42.3636 7.20513 37.8536 6 32.9615 6C28.07 6 23.5585 7.2055 19.4282 9.616C15.2972 12.0266 12.027 15.2972 9.616 19.4282C7.20537 23.559 6 28.0699 6 32.9608C6 38.8358 7.71406 44.1187 11.143 48.811C14.5716 53.5036 19.0009 56.7507 24.4304 58.5527C25.0624 58.67 25.5303 58.5875 25.8345 58.3073C26.1388 58.0267 26.2908 57.6753 26.2908 57.2545C26.2908 57.1843 26.2848 56.5527 26.2731 55.3588C26.261 54.165 26.2554 53.1236 26.2554 52.2349L25.4479 52.3746C24.9331 52.4689 24.2836 52.5089 23.4995 52.4976C22.7158 52.4866 21.9021 52.4045 21.0597 52.2518C20.217 52.1004 19.4331 51.7494 18.7075 51.1994C17.9823 50.6494 17.4675 49.9294 17.1631 49.0407L16.8121 48.2328C16.5781 47.695 16.2097 47.0975 15.7064 46.4427C15.2032 45.7872 14.6942 45.3428 14.1794 45.1088L13.9336 44.9328C13.7698 44.8159 13.6178 44.6749 13.4773 44.5112C13.3369 44.3476 13.2318 44.1838 13.1615 44.0197C13.0912 43.8556 13.1495 43.721 13.337 43.6153C13.5245 43.5097 13.8634 43.4584 14.3551 43.4584L15.057 43.5633C15.5251 43.6571 16.1041 43.9374 16.7948 44.4057C17.485 44.8737 18.0525 45.4821 18.4973 46.2307C19.0358 47.1905 19.6847 47.9219 20.4457 48.4251C21.2061 48.9284 21.9727 49.1796 22.7449 49.1796C23.5171 49.1796 24.184 49.1211 24.7459 49.0047C25.3073 48.8876 25.8339 48.7116 26.3256 48.4778C26.5362 46.9091 27.1097 45.7039 28.0456 44.8615C26.7117 44.7214 25.5125 44.5102 24.4473 44.2295C23.3827 43.9484 22.2826 43.4922 21.1476 42.8597C20.0121 42.2281 19.0701 41.4437 18.3214 40.508C17.5726 39.5718 16.958 38.3427 16.4786 36.8218C15.999 35.3003 15.7591 33.5452 15.7591 31.5559C15.7591 28.7236 16.6837 26.3133 18.5327 24.3238C17.6665 22.1944 17.7483 19.8073 18.7782 17.1626C19.457 16.9518 20.4635 17.11 21.7974 17.6364C23.1315 18.163 24.1083 18.6142 24.7287 18.9882C25.3492 19.3622 25.8463 19.679 26.2208 19.936C28.3978 19.3277 30.6444 19.0235 32.9612 19.0235C35.2781 19.0235 37.5251 19.3277 39.7023 19.936L41.0363 19.0939C41.9485 18.5319 43.0257 18.017 44.2654 17.5489C45.5058 17.081 46.4543 16.9521 47.11 17.163C48.1627 19.8078 48.2566 22.1948 47.3902 24.3242C49.239 26.3137 50.164 28.7245 50.164 31.5563C50.164 33.5455 49.9233 35.3062 49.4444 36.8394C48.9648 38.3728 48.345 39.6007 47.5846 40.5256C46.8233 41.4504 45.8753 42.2286 44.7404 42.8601C43.6052 43.4921 42.5048 43.9483 41.4402 44.2294C40.3751 44.5105 39.1759 44.7217 37.842 44.8621C39.0586 45.9149 39.667 47.5767 39.667 49.8468V57.2535C39.667 57.6743 39.8133 58.0256 40.1062 58.3063C40.3987 58.5865 40.8607 58.669 41.4927 58.5516C46.9229 56.7499 51.3522 53.5026 54.7807 48.81C58.2088 44.1177 59.9235 38.8348 59.9235 32.9598C59.9222 28.0695 58.7163 23.559 56.3067 19.4282Z" fill="#FFFFFF"/>
</svg>